<svg preserveAspectRatio="none" width="100%" height="100%" overflow="visible" style="display: block;" viewBox="0 0 1986.29 1583.59" fill="none" xmlns="http://www.w3.org/2000/svg">
<g id="bg" opacity="0.3">
<g id="Ellipse 5" filter="url(#filter0_f_0_50)">
<ellipse cx="1116.35" cy="1016" rx="477.858" ry="263.729" transform="rotate(-6.48121 1116.35 1016)" fill="var(--fill-0, #2077BA)"/>
</g>
<g id="Ellipse 4" filter="url(#filter1_f_0_50)">
<path d="M1452.16 853.654C1495.7 791.974 1498.18 744.896 1519.91 672.592C1561.84 533.023 1530.96 441.365 1580.8 304.42C1682.5 24.9916 1858.36 904.578 1608.22 1065.36C1450.97 1166.44 990.842 1190.67 1129.56 1065.36C1184.95 1015.32 1237.97 1020.6 1300.54 979.874C1365.1 937.838 1407.73 916.599 1452.16 853.654Z" fill="url(#paint0_linear_0_50)"/>
</g>
<g id="Vector 4" filter="url(#filter2_f_0_50)">
<path d="M578.612 895.954C464.243 903.479 389.599 945.696 316.994 1043.92C169.912 1242.9 1029.26 1306.11 909.579 1087.51C834.119 949.673 724.697 886.343 578.612 895.954Z" fill="var(--fill-0, #2077BA)"/>
</g>
<g id="Vector 5" filter="url(#filter3_f_0_50)">
<path d="M583.419 951.127C488.324 957.384 426.259 992.486 365.891 1074.16C243.595 1239.6 958.12 1292.16 858.611 1110.4C795.868 995.793 704.886 943.136 583.419 951.127Z" fill="var(--fill-0, #0AD392)"/>
</g>
</g>
<defs>
<filter id="filter0_f_0_50" x="340.595" y="448.408" width="1551.51" height="1135.18" filterUnits="userSpaceOnUse" color-interpolation-filters="sRGB">
<feFlood flood-opacity="0" result="BackgroundImageFix"/>
<feBlend mode="normal" in="SourceGraphic" in2="BackgroundImageFix" result="shape"/>
<feGaussianBlur stdDeviation="150" result="effect1_foregroundBlur_0_50"/>
</filter>
<filter id="filter1_f_0_50" x="853.833" y="-1.57076e-06" width="1132.45" height="1400.5" filterUnits="userSpaceOnUse" color-interpolation-filters="sRGB">
<feFlood flood-opacity="0" result="BackgroundImageFix"/>
<feBlend mode="normal" in="SourceGraphic" in2="BackgroundImageFix" result="shape"/>
<feGaussianBlur stdDeviation="125" result="effect1_foregroundBlur_0_50"/>
</filter>
<filter id="filter2_f_0_50" x="1.09673e-05" y="595.005" width="1221.05" height="929.823" filterUnits="userSpaceOnUse" color-interpolation-filters="sRGB">
<feFlood flood-opacity="0" result="BackgroundImageFix"/>
<feBlend mode="normal" in="SourceGraphic" in2="BackgroundImageFix" result="shape"/>
<feGaussianBlur stdDeviation="150" result="effect1_foregroundBlur_0_50"/>
</filter>
<filter id="filter3_f_0_50" x="151.76" y="750.338" width="916.391" height="674.24" filterUnits="userSpaceOnUse" color-interpolation-filters="sRGB">
<feFlood flood-opacity="0" result="BackgroundImageFix"/>
<feBlend mode="normal" in="SourceGraphic" in2="BackgroundImageFix" result="shape"/>
<feGaussianBlur stdDeviation="100" result="effect1_foregroundBlur_0_50"/>
</filter>
<linearGradient id="paint0_linear_0_50" x1="1538.05" y1="560.487" x2="1379.17" y2="1021.01" gradientUnits="userSpaceOnUse">
<stop stop-color="#2F2F2F"/>
<stop offset="1" stop-color="#696969"/>
</linearGradient>
</defs>
</svg>
